<?xml version="1.0" encoding="UTF-8"?>
<svg xmlns="http://www.w3.org/2000/svg" xmlns:xlink="http://www.w3.org/1999/xlink" width="16px" height="16px" viewBox="0 0 16 16" version="1.1">
<g id="surface1">
<path d="M 3.738281 1.859375 C 3.738281 2.886719 2.90625 3.722656 1.878906 3.722656 C 0.851562 3.722656 0.015625 2.886719 0.015625 1.859375 C 0.015625 0.832031 0.851562 0 1.878906 0 C 2.90625 0 3.738281 0.832031 3.738281 1.859375 Z M 3.738281 1.859375 "/>
<path d="M 15.996094 1.859375 C 15.996094 2.886719 15.160156 3.722656 14.132812 3.722656 C 13.105469 3.722656 12.273438 2.886719 12.273438 1.859375 C 12.273438 0.832031 13.105469 0 14.132812 0 C 15.160156 0 15.996094 0.832031 15.996094 1.859375 Z M 15.996094 1.859375 "/>
<path d="M 9.867188 1.859375 C 9.867188 2.886719 9.035156 3.722656 8.003906 3.722656 C 6.976562 3.722656 6.144531 2.886719 6.144531 1.859375 C 6.144531 0.832031 6.976562 0 8.003906 0 C 9.035156 0 9.867188 0.832031 9.867188 1.859375 Z M 9.867188 1.859375 "/>
<path d="M 3.726562 8 C 3.726562 9.027344 2.894531 9.859375 1.867188 9.859375 C 0.839844 9.859375 0.00390625 9.027344 0.00390625 8 C 0.00390625 6.972656 0.839844 6.140625 1.867188 6.140625 C 2.894531 6.140625 3.726562 6.972656 3.726562 8 Z M 3.726562 8 "/>
<path d="M 15.984375 8 C 15.984375 9.027344 15.148438 9.859375 14.121094 9.859375 C 13.09375 9.859375 12.261719 9.027344 12.261719 8 C 12.261719 6.972656 13.09375 6.140625 14.121094 6.140625 C 15.148438 6.140625 15.984375 6.972656 15.984375 8 Z M 15.984375 8 "/>
<path d="M 9.855469 8 C 9.855469 9.027344 9.023438 9.859375 7.996094 9.859375 C 6.964844 9.859375 6.132812 9.027344 6.132812 8 C 6.132812 6.972656 6.964844 6.140625 7.996094 6.140625 C 9.023438 6.140625 9.855469 6.972656 9.855469 8 Z M 9.855469 8 "/>
<path d="M 3.726562 14.140625 C 3.726562 15.167969 2.894531 16 1.867188 16 C 0.839844 16 0.00390625 15.167969 0.00390625 14.140625 C 0.00390625 13.113281 0.839844 12.277344 1.867188 12.277344 C 2.894531 12.277344 3.726562 13.113281 3.726562 14.140625 Z M 3.726562 14.140625 "/>
<path d="M 15.984375 14.140625 C 15.984375 15.167969 15.148438 16 14.121094 16 C 13.09375 16 12.261719 15.167969 12.261719 14.140625 C 12.261719 13.113281 13.09375 12.277344 14.121094 12.277344 C 15.148438 12.277344 15.984375 13.113281 15.984375 14.140625 Z M 15.984375 14.140625 "/>
<path d="M 9.855469 14.140625 C 9.855469 15.167969 9.023438 16 7.996094 16 C 6.964844 16 6.132812 15.167969 6.132812 14.140625 C 6.132812 13.113281 6.964844 12.277344 7.996094 12.277344 C 9.023438 12.277344 9.855469 13.113281 9.855469 14.140625 Z M 9.855469 14.140625 "/>
</g>
</svg>
