<?xml version="1.0" encoding="UTF-8"?>
<svg xmlns="http://www.w3.org/2000/svg" xmlns:xlink="http://www.w3.org/1999/xlink" width="14px" height="14px" viewBox="0 0 14 14" version="1.1">
<g id="surface1">
<path style=" stroke:none;fill-rule:nonzero;fill:rgb(60.392157%,62.745098%,65.098039%);fill-opacity:1;" d="M 10.003906 8.804688 L 9.375 8.804688 L 9.148438 8.589844 C 9.960938 7.648438 10.40625 6.445312 10.40625 5.203125 C 10.40625 2.328125 8.078125 0 5.203125 0 C 2.328125 0 0 2.328125 0 5.203125 C 0 8.078125 2.328125 10.40625 5.203125 10.40625 C 6.492188 10.40625 7.675781 9.933594 8.589844 9.148438 L 8.804688 9.375 L 8.804688 10.003906 L 12.808594 14 L 14 12.808594 Z M 5.203125 8.804688 C 3.210938 8.804688 1.601562 7.195312 1.601562 5.203125 C 1.601562 3.210938 3.210938 1.601562 5.203125 1.601562 C 7.195312 1.601562 8.804688 3.210938 8.804688 5.203125 C 8.804688 7.195312 7.195312 8.804688 5.203125 8.804688 Z M 5.203125 8.804688 "/>
</g>
</svg>
